<?xml version="1.0" encoding="utf-8"?>
<!-- Generator: Adobe Illustrator 16.0.3, SVG Export Plug-In . SVG Version: 6.00 Build 0)  -->
<!DOCTYPE svg PUBLIC "-//W3C//DTD SVG 1.1//EN" "http://www.w3.org/Graphics/SVG/1.1/DTD/svg11.dtd">
<svg version="1.1" id="Ebene_1" xmlns="http://www.w3.org/2000/svg" xmlns:xlink="http://www.w3.org/1999/xlink" x="0px" y="0px"
	 width="1280px" height="800px" viewBox="0 0 1280 800" enable-background="new 0 0 1280 800" xml:space="preserve">
<g>
	<path fill="#FFFFFF" d="M830.25,450c-38.75-46.25-97.5-75-161.25-75s-122.5,28.75-161.25,75c-31.25,37.5-51.25,85-51.25,137.5
		C456.5,705,551.5,800,669,800s212.5-95,212.5-212.5C881.5,535,862.75,487.5,830.25,450z M606.5,613.75h-50v-50h50V613.75z
		 M694,613.75h-50v-50h50V613.75z M781.5,613.75h-50v-50h50V613.75z"/>
	<g>
		<path fill="#FFFFFF" d="M392.537,401.027h-31.814c-1.97,0-3.571,1.6-3.571,3.572v31.813c0,1.971,1.602,3.568,3.571,3.568h31.814
			c1.969,0,3.572-1.598,3.572-3.568V404.6C396.109,402.627,394.506,401.027,392.537,401.027z"/>
		<path fill="#FFFFFF" d="M467.174,200.493v92.331c0,6.747-2.639,12.877-6.909,17.46h0.675c4.27-4.583,6.908-10.713,6.908-17.46
			v-92.331c0-14.146-11.51-25.658-25.657-25.658h-0.676C455.661,174.835,467.174,186.347,467.174,200.493z"/>
		<path fill="#FFFFFF" d="M989.404,229.568c-4.623-7.229-9.619-13.674-15.379-20.125c-1.926-2.662-4.23-4.551-6.918-6.827
			c-3.836-4.175-7.668-7.583-11.887-10.987c-15.715-12.873-32.939-21.923-51.668-26.771c-1.531-0.377-2.283-0.746-3.436-1.125
			c-7.053-30.85-22.49-58.6-47.037-82.485c-33.779-33.749-74.691-50.28-121.998-49.993c-47.309,0.291-88.012,17.323-121.374,51.478
			c-17.817,18.034-31.047,37.571-38.922,59.745c-16.46-8.677-34.796-13.137-55.007-13.015c-32.045,0.197-59.826,11.81-82.57,34.834
			c-0.309,0.313-2.931,4.304-6.573,10.539h14.879h0.676c14.147,0,25.657,11.512,25.657,25.658v92.331
			c0,6.747-2.639,12.877-6.908,17.46h74.43h0.674c14.147,0,25.662,11.512,25.662,25.661v13.292
			c33.035-14.558,70.037-22.715,109.115-22.715c96.727,0,180.75,49.964,223.242,123.345l18.098-0.109c0.387,0,0.387,0,0.387,0
			l4.568-0.027c-0.766-0.381-1.896-0.374-3.053-0.368c15.229-5.805,29.67-13.912,42.578-25.059
			c4.18-3.454,7.969-6.905,11.754-10.743c2.662-2.312,4.941-4.616,6.834-7.283c24.621-28.004,36.625-60.5,36.393-98.27
			C1011.445,278.641,1004.037,252.367,989.404,229.568z"/>
		<path fill="#FFFFFF" d="M316.127,356.016c3.991,0,7.236-3.242,7.236-7.24v-64.459c0-4-3.245-7.241-7.236-7.241h-64.466
			c-3.991,0-7.242,3.241-7.242,7.241v64.459c0,3.998,3.251,7.24,7.242,7.24H316.127z"/>
		<path fill="#FFFFFF" d="M329.107,381.662h-48.531c-3.007,0-5.456,2.439-5.456,5.45v48.533c0,3.007,2.449,5.45,5.456,5.45h48.531
			c3.009,0,5.454-2.443,5.454-5.45v-48.533C334.562,384.102,332.116,381.662,329.107,381.662z"/>
		<path fill="#FFFFFF" d="M321.592,260.503c0.711,0,1.376-0.213,1.934-0.576v-37.806c-0.558-0.357-1.223-0.574-1.934-0.574h-31.814
			c-1.969,0-3.572,1.604-3.572,3.574v31.815c0,1.967,1.604,3.566,3.572,3.566H321.592z"/>
		<path fill="#FFFFFF" d="M251.964,374.611h-37.387c-2.312,0-4.201,1.882-4.201,4.197v37.389c0,2.313,1.89,4.195,4.201,4.195h37.387
			c2.312,0,4.199-1.882,4.199-4.195v-37.389C256.163,376.493,254.275,374.611,251.964,374.611z"/>
		<path fill="#FFFFFF" d="M397.962,324.501h-42.166c-2.609,0-4.738,2.117-4.738,4.727v42.167c0,2.61,2.129,4.729,4.738,4.729h42.166
			c2.604,0,4.735-2.118,4.735-4.729v-42.167C402.697,326.618,400.566,324.501,397.962,324.501z"/>
		<g>
			<path fill="#FFFFFF" d="M545.737,356.935v-20.989c0-5.721-4.648-10.371-10.368-10.371h-92.326
				c-5.722,0-10.376,4.65-10.376,10.371v92.328c0,5.727,4.654,10.375,10.376,10.375h11.453
				C476.817,404.783,508.281,376.585,545.737,356.935z"/>
		</g>
		<path fill="#FFFFFF" d="M441.515,303.2c5.722,0,10.37-4.65,10.37-10.376v-92.331c0-5.718-4.648-10.368-10.37-10.368h-92.326
			c-5.72,0-10.377,4.65-10.377,10.368v92.331c0,5.726,4.657,10.376,10.377,10.376H441.515z"/>
	</g>
</g>
</svg>
