<?xml version="1.0" encoding="utf-8"?>
<!-- Generator: Adobe Illustrator 16.0.3, SVG Export Plug-In . SVG Version: 6.00 Build 0)  -->
<!DOCTYPE svg PUBLIC "-//W3C//DTD SVG 1.1//EN" "http://www.w3.org/Graphics/SVG/1.1/DTD/svg11.dtd">
<svg version="1.1" id="Calque_1" xmlns="http://www.w3.org/2000/svg" xmlns:xlink="http://www.w3.org/1999/xlink" x="0px" y="0px"
	 width="595.28px" height="841.89px" viewBox="0 0 595.28 841.89" enable-background="new 0 0 595.28 841.89" xml:space="preserve">
<g>
	<path fill="#99C0CB" d="M191.326,498.744h-15.482c-0.958,0-1.738,0.778-1.738,1.738v15.481c0,0.959,0.78,1.736,1.738,1.736h15.482
		c0.958,0,1.739-0.777,1.739-1.736v-15.481C193.065,499.522,192.285,498.744,191.326,498.744z"/>
	<g>
		<path fill="none" d="M227.647,401.155v44.933c0,3.283-1.284,6.267-3.362,8.497h0.328c2.078-2.23,3.362-5.214,3.362-8.497v-44.933
			c0-6.885-5.601-12.485-12.486-12.485h-0.328C222.045,388.67,227.647,394.271,227.647,401.155z"/>
		<path fill="#24678C" d="M481.788,415.305c-2.25-3.518-4.681-6.654-7.484-9.794c-0.937-1.295-2.058-2.215-3.366-3.321
			c-1.867-2.032-3.731-3.691-5.785-5.348c-7.647-6.265-16.029-10.669-25.144-13.028c-0.744-0.184-1.11-0.363-1.672-0.547
			c-3.433-15.014-10.945-28.519-22.89-40.142c-16.439-16.424-36.349-24.469-59.37-24.329c-23.021,0.142-42.83,8.43-59.066,25.052
			c-8.671,8.776-15.108,18.283-18.941,29.074c-8.01-4.222-16.933-6.393-26.768-6.333c-15.595,0.096-29.114,5.747-40.183,16.951
			c-0.15,0.152-1.426,2.095-3.199,5.13h7.242h0.328c6.885,0,12.486,5.601,12.486,12.485v44.933c0,3.283-1.284,6.267-3.362,8.497
			h36.221h0.328c6.885,0,12.489,5.602,12.489,12.487v44.931c0,4.827-2.76,9.017-6.778,11.093l129.617-0.347c0,0,0,0,0.186-0.002
			l47.522-0.289c0.188,0,0.188,0,0.188,0l2.224-0.014c-0.372-0.185-0.924-0.182-1.485-0.179c7.411-2.824,14.438-6.77,20.72-12.194
			c2.033-1.681,3.877-3.36,5.72-5.229c1.296-1.124,2.405-2.245,3.325-3.544c11.982-13.628,17.823-29.442,17.711-47.822
			C492.514,439.186,488.908,426.399,481.788,415.305z"/>
		<path fill="#487E9D" d="M154.142,476.839c1.943,0,3.521-1.578,3.521-3.523v-31.368c0-1.946-1.579-3.524-3.521-3.524h-31.371
			c-1.943,0-3.524,1.578-3.524,3.524v31.368c0,1.945,1.582,3.523,3.524,3.523H154.142z"/>
		<path fill="#8DBBC5" d="M160.459,489.319h-23.618c-1.463,0-2.655,1.188-2.655,2.652v23.619c0,1.464,1.192,2.652,2.655,2.652
			h23.618c1.463,0,2.654-1.188,2.654-2.652v-23.619C163.113,490.508,161.923,489.319,160.459,489.319z"/>
		<path fill="#99C0CB" d="M156.801,430.359c0.347,0,0.669-0.104,0.941-0.28v-18.398c-0.272-0.174-0.594-0.279-0.941-0.279H141.32
			c-0.958,0-1.74,0.78-1.74,1.739v15.482c0,0.957,0.781,1.736,1.74,1.736H156.801z"/>
		<path fill="#E4EFF3" d="M122.917,485.888h-18.194c-1.125,0-2.045,0.917-2.045,2.044v18.195c0,1.124,0.919,2.04,2.045,2.04h18.194
			c1.125,0,2.043-0.916,2.043-2.04v-18.195C124.961,486.805,124.043,485.888,122.917,485.888z"/>
		<path fill="#E4EFF3" d="M193.966,461.503h-20.52c-1.27,0-2.306,1.03-2.306,2.3v20.521c0,1.27,1.036,2.302,2.306,2.302h20.52
			c1.268,0,2.305-1.032,2.305-2.302v-20.521C196.271,462.533,195.233,461.503,193.966,461.503z"/>
		<path fill="#487E9D" d="M215.904,462.025c-2.784,0-5.049,2.263-5.049,5.047v44.931c0,2.787,2.265,5.049,5.049,5.049h44.93
			c2.783,0,5.046-2.262,5.046-5.049v-44.931c0-2.784-2.263-5.047-5.046-5.047H215.904z"/>
		<path fill="#99C0CB" d="M215.162,451.137c2.783,0,5.045-2.263,5.045-5.049v-44.933c0-2.782-2.262-5.046-5.045-5.046h-44.931
			c-2.783,0-5.05,2.264-5.05,5.046v44.933c0,2.786,2.267,5.049,5.05,5.049H215.162z"/>
	</g>
</g>
</svg>
